<?xml version="1.0" encoding="UTF-8"?>
<!-- Generator: Adobe Illustrator 22.0.1, SVG Export Plug-In . SVG Version: 6.00 Build 0)  -->
<svg version="1.1" id="svg2" inkscape:version="0.92.1 r15371" sodipodi:docname="France.tv Publicit√© (2018).svg"
	xmlns:cc="http://creativecommons.org/ns#" xmlns:dc="http://purl.org/dc/elements/1.1/"
	xmlns:inkscape="http://www.inkscape.org/namespaces/inkscape" xmlns:rdf="http://www.w3.org/1999/02/22-rdf-syntax-ns#"
	xmlns:sodipodi="http://sodipodi.sourceforge.net/DTD/sodipodi-0.dtd" xmlns:svg="http://www.w3.org/2000/svg"
	xmlns="http://www.w3.org/2000/svg" xmlns:xlink="http://www.w3.org/1999/xlink" x="0px" y="0px"
	viewBox="0 0 4885.2 603.7" style="enable-background:new 0 0 4885.2 603.7;" xml:space="preserve">
	<style type="text/css">
		.st0 {
			fill: #FFFFFF;
		}

		.st1 {
			fill: #FFFFFF;
		}
	</style>
	<g>
		<path class="st0"
			d="M2988.6,248.5c-34.2-108.6-157.9-133.5-233.7-76.9c-3.5,2.6-6.9,5.5-10.9,8.7c0-9.2-0.2-17.7,0.1-26.1   c0.2-4.2-0.7-5.7-5.3-5.6c-11.8,0.4-23.7,0.4-35.5,0c-5-0.2-5.9,1.4-5.9,6.1c0.1,100.1,0.1,200.3,0.1,300.4   c0,47.7,0.1,95.3-0.1,143c0,4.7,1.4,5.7,5.8,5.6c12.3-0.3,24.7-0.3,37,0c4.2,0.1,5.1-1.1,5.1-5.2c-0.1-57.6-0.1-115.3-0.1-173   c0-1.8,0-3.6,0-6.7c3.5,3.1,6,5.4,8.7,7.6c27.7,22.3,59.5,31.5,94.8,30.3c42.8-1.5,79.4-17.5,107.7-49.2   C2997.7,361.2,3007,306.6,2988.6,248.5z M2928.4,367.5c-27.6,39.6-90.9,61.9-145.7,24.3c-14.5-9.9-26.1-22.6-35.6-37.4   c-1.4-2.2-2-4.4-2-7c0.1-16.8,0-33.7,0-50.5s0-33.7,0-50.5c0-2.2,0.3-4.2,1.6-6.1c32.3-45.9,98.1-71.2,154.5-35.2   c25.1,16,39.4,39.7,45.2,68.5C2953.2,307.2,2948.3,339.1,2928.4,367.5z" />
		<path class="st0"
			d="M3273.5,420.5c-20.8,19-43.9,30.1-70.1,34.5c-54.5,9-112.8-13.8-139-66c-10.3-20.5-14.3-42.5-14.8-65.1   c-0.6-29.3-0.4-58.6-0.4-88c-0.1-27.3,0.1-54.7-0.1-82c0-4.6,1.4-5.5,5.6-5.4c12.5,0.3,25,0.3,37.5,0c3.9-0.1,5,0.9,5,4.9   c-0.1,52.5-0.2,105,0,157.5c0,16.5,1.4,33,7.3,48.6c12.7,33.4,45.7,54.2,82.1,51.3c37.3-3,64.8-21.9,84.2-53.4   c1.4-2.3,1.3-4.7,1.3-7.2c0-65.3,0-130.6-0.1-195.9c0-4.4,0.9-5.9,5.6-5.8c12.5,0.4,25,0.3,37.5,0c4-0.1,4.9,1.1,4.9,5   c-0.1,54.8-0.1,109.6-0.1,164.5c0,42.5-0.1,85,0.1,127.5c0,4.3-1.2,5.2-5.3,5.1c-12-0.3-24-0.4-36,0c-4.7,0.2-5.5-1.4-5.3-5.6   C3273.7,437.3,3273.5,429.5,3273.5,420.5z" />
		<path class="st0"
			d="M3675.6,247.6c-35.2-109.1-161-132.9-235.8-74.1c-2.2,1.7-7.3,5.2-7.3,5.2l-1.4-151.5h-46.5v423.4h46.5   c0,0,0-22.9,0-32.4c5.3,4.4,9.7,8.4,14.5,11.9c27.2,19.7,57.8,27.9,91.1,26.5c46.2-2,84.7-20.5,113.2-56.7   C3686,354.3,3693.2,302.1,3675.6,247.6z M3614.5,369.1c-31.1,42.6-91,54.3-136.8,27.6c-17.9-10.5-32.1-24.7-43.2-42.1   c-1.4-2.2-1.9-4.5-1.9-7.1c0.1-17,0-34,0-51c0-16.5,0.1-33-0.1-49.5c0-3.2,0.7-5.8,2.7-8.3c26.9-34.4,61.5-53.6,105.8-49.9   c43.4,3.6,80.3,31.6,91.9,80.9C3641.2,305.3,3636.4,339.1,3614.5,369.1z" />
		<polygon class="st0" points="3736.3,27.2 3784.3,27.2 3784.3,450.6 3736.3,450.6  " />
		<polygon class="st0" points="4273.9,148.5 4321.9,148.6 4321.9,450.6 4273.9,450.6  " />
		<path class="st0"
			d="M4260,53.3c0.1-20.9,17-37.9,37.7-37.8c20.9,0,38.1,17.3,38.1,38.2c0,20.7-17.4,37.7-38.6,37.6   C4276.1,91.2,4259.9,74.8,4260,53.3z" />
		<path class="st0"
			d="M3955.5,299.5c0-76.9,52-141.1,127.2-154.4c55.5-9.8,104.5,5,145,45.2c2.2,2.2,2.1,3.4,0.1,5.5   c-8.3,9.1-16.5,18.3-24.4,27.8c-2.9,3.4-4.5,3.7-7.8,0.4c-16.2-16.2-35.4-27.4-57.9-32.8c-62-14.7-123.2,26.5-133,89.6   c-9.2,59.7,25.6,113,84.3,126.9c44.5,10.5,82-3.3,113.2-35.9c2.5-2.7,3.7-3,6.5-0.3c9.1,8.8,18.3,17.5,27.8,25.8   c3.2,2.8,2.6,4.2,0.1,6.9c-31,33.4-69.2,51.4-114.8,52.3c-58,1.1-105.5-20.6-139.6-68.2C3963.4,362,3955.6,331.8,3955.5,299.5z" />
		<polygon class="st0" points="3903.3,450.6 3855.4,450.6 3855.4,148.6 3903.3,148.6  " />
		<path class="st0"
			d="M3917.2,53.5c0.1,20.8-16.8,37.7-37.7,37.8c-21.5,0.1-38.1-16.4-38-37.8c0.1-21,16.9-38,37.6-38   C3900,15.5,3917.1,32.5,3917.2,53.5z" />
		<path class="st0"
			d="M4436.3,194.4l-81.5,0.2v-46l81.5,0.2V69.6h47.6v79.2l99.1-0.2v46l-99-0.1c0,0,0,108.1,0.4,160.1   c0.1,13.7,2.2,27.3,11.5,38.4c10.7,12.9,25,17.5,41.1,18c11.9,0.3,23.6-0.5,35-4.3c2.4-0.8,3.5-0.3,4,2.3   c2.3,12.4,4.7,24.8,7.1,37.2c0.4,2.1,1,4-2.3,4.9c-38.7,10-76,9.3-109.4-15.7c-20.5-15.3-30.2-37.2-33.2-62.1   C4434.4,342.8,4436.3,194.4,4436.3,194.4z" />
		<path class="st0"
			d="M4883,261.6c-6.4-35.7-22.3-66.2-50.9-88.9c-66.9-53.1-164.1-35.3-208.1,38.1c-24.3,40.5-29.5,84.4-19.2,130   c9.6,42.5,32.9,75.7,71.3,97.2c35.3,19.8,73.2,23.3,112.2,15c34.8-7.4,64.2-24.2,86.8-52.2c2.3-2.8,2.3-4.3-0.4-6.8   c-9.2-8.4-18.3-17-27.2-25.7c-2.6-2.5-3.8-3-6.3,0.2c-21.1,26.5-48.8,40.6-82.6,42.4c-29,1.6-55.2-6-76.4-26.7   c-19.5-19-29.6-42.7-33.3-69.3c-0.9-6.4-0.7-6.4,5.8-6.4c37.2,0,74.3,0,111.5,0c37.5,0,75-0.1,112.5,0.1c4.6,0,5.9-1.5,6.1-5.7   C4885.5,289.1,4885.4,275.3,4883,261.6z M4830.6,263.9c-29.2,0.1-58.3,0-87.5,0c-28.8,0-57.7-0.1-86.5,0.1c-4.4,0-5.4-0.9-3.9-5.3   c12.3-35.7,35-60.9,73-68.6c52.7-10.7,97,22.5,108.7,70.6C4835.6,265.2,4832.6,263.9,4830.6,263.9z" />
		<polygon class="st0" points="4760.8,113.1 4720.3,113.1 4760.5,27.3 4819.5,27.4  " />
	</g>
	<g>
		<path id="path24_1_" inkscape:connector-curvature="0" class="st1"
			d="M239.6,74.7c-6.9-1.9-16.9-3.1-24.4-3.1   c-20,0-35.4,5.6-45.4,17.5c-6.9,8.8-11.3,20-11.3,47.9v9.4h93.2v68.5h-93.2v233.4H77.9V214.6H0v-68.2h77.9v-12.5   c0-48.5,11.3-77.9,32.2-98.2C131.4,15.1,163,0,204.3,0c16.3,0,31,1.3,47.9,5.6L239.6,74.7" />
		<path id="path22_1_" inkscape:connector-curvature="0" class="st1"
			d="M473,217.7c-5.6-1.9-17.5-3.1-29.4-3.1   c-35.4,0-63.5,25.7-73.5,43.5V448h-80.7V146.4h77.9v30.3c18.1-22.5,51-36.6,87.9-36.6c11.9,0,18.8,1.3,27.5,2.5L473,217.7" />
		<path id="path18_1_" inkscape:connector-curvature="0" class="st1"
			d="M718.9,252.1c-16.9-22.5-43.5-37.2-74.8-37.2   c-47.2,0-77.9,39.1-77.9,82.9c0,47.2,34.1,82.3,79.8,82.3c30.3,0,57.3-15,72.9-37.2V252.1L718.9,252.1z M800,448.3h-77.9v-24.4   c-25,21.3-53.5,30.3-84.2,30.3c-44.7,0-87.3-20-113.9-51c-23.8-27.5-38.5-64.8-38.5-105.7c0-89.2,66-157.4,148.3-157.4   c34.1,0,64.8,11.3,88.5,30.7v-24.4h77.9L800,448.3" />
		<path id="path14_1_" inkscape:connector-curvature="0" class="st1"
			d="M865.7,448.3V146.4h77.9v24.4c23.2-18.8,51.6-30.3,85.4-30.3   c41.6,0,79.8,18.8,104.5,48.5c20,23.8,31,54.1,31,105.7v153.6h-81V288.1c0-29.7-6.9-45.4-18.1-56.6c-10.6-10.6-26.9-16.9-45.4-16.9   c-34.1,0-62.3,21.9-73.5,37.2V448h-80.7" />
		<path id="path20_1_" inkscape:connector-curvature="0" class="st1"
			d="M1509.5,386.6c-35.4,47.2-80.4,67.9-137,67.9   c-93.2,0-161.7-69.8-161.7-156.7c0-87.9,70.4-157.4,162.4-157.4c52.2,0,98.9,24.4,127,60.4l-57.3,50.4c-16.3-21.3-40.4-36-69.8-36   c-46.6,0-81.7,36.6-81.7,82.9c0,47.2,34.1,82.3,83.5,82.3c32.8,0,59.1-20,72.3-39.7L1509.5,386.6" />
		<path id="path16_1_" inkscape:connector-curvature="0" class="st1"
			d="M1734.8,258.4c-2.5-26.9-26.9-52.9-59.8-52.9   c-33.5,0-61,25.7-64.8,52.9H1734.8z M1810.2,400.1c-29.4,34.7-77.3,54.1-123.9,54.1c-90.1,0-158-62.3-158-156.7   c0-84.2,57.3-157.4,147-157.4c83.5,0,142.7,70.4,142.7,154.2c0,8.1-0.6,16.3-1.9,23.2h-209.3c4.4,42.2,38.5,71.6,81.7,71.6   c34.1,0,61.6-19.4,76-34.7L1810.2,400.1" />
		<path id="path26_1_" inkscape:connector-curvature="0" class="st1"
			d="M2058.9,297.2c0,45.7-36.9,82.6-82.6,82.6   s-82.6-36.9-82.6-82.6s36.9-82.6,82.6-82.6C2022,214.6,2058.9,251.5,2058.9,297.2" />
		<path id="path28_1_" inkscape:connector-curvature="0" class="st1"
			d="M2239.1,146.4V62.2h-81v84.2h-77.9v68.5h77.9v105.7   c0,42.9,6.9,69.8,22.5,90.1c20.6,27.5,56,43.5,104.5,43.5c15.6,0,39.7-2.5,50.4-6.3l-12.5-68.5c-5.6,1.3-21.3,3.1-32.8,3.1   c-20,0-32.8-5.6-41-15c-6.9-8.1-10-19.4-10-37.9v-115h99.5L2446,448h56l138.9-301.9h-84.2l-82.9,184.3l-82.9-184.3h-151.7" />
	</g>
</svg>